<?xml version="1.0" encoding="utf-8"?>
<!-- Generator: Adobe Illustrator 16.0.0, SVG Export Plug-In . SVG Version: 6.00 Build 0)  -->
<!DOCTYPE svg PUBLIC "-//W3C//DTD SVG 1.1//EN" "http://www.w3.org/Graphics/SVG/1.1/DTD/svg11.dtd">
<svg version="1.1" id="Isolation_Mode" xmlns="http://www.w3.org/2000/svg" xmlns:xlink="http://www.w3.org/1999/xlink" x="0px"
	 y="0px" width="28.346px" height="28.347px" viewBox="0 0 28.346 28.347" enable-background="new 0 0 28.346 28.347"
	 xml:space="preserve">
<g>
	<g>
		<path fill="#B81324" d="M26.565,9.31l-1.257-0.005c-0.196-1.029-0.6-2.031-1.209-2.927l0.891-0.885
			c0.323-0.319,0.323-0.843,0.005-1.162L24.099,3.43c-0.318-0.323-0.844-0.323-1.167-0.005L22.046,4.31
			c-0.896-0.615-1.893-1.023-2.921-1.225l0.005-1.256c0-0.456-0.365-0.822-0.822-0.827l-1.271-0.005
			c-0.457,0-0.822,0.366-0.828,0.822l-0.005,1.251c-1.034,0.191-2.036,0.588-2.943,1.198l-0.875-0.875
			c-0.318-0.324-0.843-0.324-1.162-0.006l-0.901,0.896C10,4.602,10,5.126,10.318,5.445l0.865,0.87
			C10.615,7.136,10.217,8.048,10,8.992c1.145,0.063,2.264,0.323,3.319,0.769c0.059,0.027,0.117,0.048,0.175,0.074
			c0.169-0.774,0.552-1.505,1.151-2.104c1.659-1.655,4.348-1.644,5.997,0.016c1.654,1.66,1.644,4.348-0.016,5.997
			c-0.594,0.588-1.315,0.965-2.079,1.134c0.027,0.064,0.059,0.133,0.085,0.196c0.445,1.05,0.7,2.158,0.769,3.298
			c0.923-0.217,1.813-0.6,2.624-1.15l0.865,0.87c0.318,0.323,0.844,0.323,1.166,0.005l0.902-0.896
			c0.322-0.318,0.322-0.843,0.005-1.167l-0.87-0.875c0.615-0.901,1.019-1.903,1.215-2.938l1.246,0.005
			c0.455,0,0.821-0.366,0.826-0.822l0.006-1.272C27.386,9.681,27.021,9.31,26.565,9.31L26.565,9.31z M26.565,9.31"/>
	</g>
	<path fill="#B81324" d="M9.427,11.108c-4.353,0-7.885,3.531-7.885,7.884c0,4.354,3.532,7.885,7.885,7.885s7.885-3.531,7.885-7.885
		C17.312,14.639,13.78,11.108,9.427,11.108L9.427,11.108z M11.691,22.099c-0.345,0.419-0.791,0.7-1.315,0.844
		c-0.228,0.063-0.329,0.18-0.318,0.419c0.011,0.233,0,0.466,0,0.7c0,0.207-0.106,0.318-0.312,0.323
		c-0.133,0.006-0.265,0.006-0.397,0.006c-0.117,0-0.234,0-0.351-0.006c-0.217-0.005-0.323-0.127-0.323-0.344
		c0-0.17-0.006-0.34-0.006-0.509c-0.005-0.376-0.016-0.393-0.376-0.445c-0.461-0.075-0.917-0.18-1.336-0.381
		c-0.334-0.16-0.366-0.244-0.271-0.594c0.069-0.26,0.143-0.52,0.223-0.774c0.058-0.19,0.111-0.271,0.212-0.271
		c0.058,0,0.132,0.026,0.233,0.08c0.467,0.244,0.965,0.382,1.484,0.445c0.09,0.01,0.175,0.016,0.265,0.016
		c0.245,0,0.483-0.042,0.711-0.143c0.578-0.254,0.668-0.928,0.18-1.331c-0.165-0.138-0.355-0.238-0.552-0.323
		c-0.508-0.223-1.039-0.393-1.517-0.684c-0.779-0.467-1.272-1.108-1.214-2.052c0.063-1.071,0.673-1.739,1.654-2.094
		c0.403-0.148,0.408-0.144,0.408-0.568v-0.429c0.011-0.318,0.063-0.377,0.382-0.382h0.371c0.605,0,0.605,0.026,0.605,0.678
		c0,0.478,0,0.483,0.477,0.557c0.366,0.059,0.716,0.165,1.05,0.313c0.186,0.08,0.254,0.212,0.201,0.408
		c-0.085,0.292-0.164,0.588-0.26,0.875c-0.058,0.175-0.111,0.255-0.217,0.255c-0.058,0-0.127-0.026-0.223-0.069
		c-0.467-0.228-0.955-0.333-1.469-0.333c-0.064,0-0.132,0-0.201,0.005c-0.154,0.011-0.303,0.026-0.446,0.09
		c-0.504,0.223-0.588,0.779-0.159,1.124c0.217,0.175,0.466,0.302,0.726,0.408c0.445,0.186,0.896,0.36,1.32,0.599
		C12.28,19.247,12.646,20.944,11.691,22.099L11.691,22.099z M11.691,22.099"/>
</g>
</svg>
